<svg xmlns="http://www.w3.org/2000/svg" width="1200" height="630" viewBox="0 0 1200 630" fill="none">
  <defs>
    <linearGradient id="accent" x1="0" y1="0" x2="1200" y2="630" gradientUnits="userSpaceOnUse">
      <stop stop-color="#10b981"/>
      <stop offset="1" stop-color="#059669"/>
    </linearGradient>
    <radialGradient id="glow1" cx="0" cy="0" r="1" gradientUnits="userSpaceOnUse" gradientTransform="translate(900 120) rotate(90) scale(280)">
      <stop stop-color="#3b82f6" stop-opacity="0.35"/>
      <stop offset="1" stop-color="#3b82f6" stop-opacity="0"/>
    </radialGradient>
    <radialGradient id="glow2" cx="0" cy="0" r="1" gradientUnits="userSpaceOnUse" gradientTransform="translate(200 520) rotate(90) scale(220)">
      <stop stop-color="#10b981" stop-opacity="0.4"/>
      <stop offset="1" stop-color="#10b981" stop-opacity="0"/>
    </radialGradient>
  </defs>
  <rect width="1200" height="630" fill="#050505"/>
  <rect width="1200" height="630" fill="url(#glow1)"/>
  <rect width="1200" height="630" fill="url(#glow2)"/>
  <rect x="80" y="80" width="1040" height="470" rx="32" fill="#ffffff" fill-opacity="0.03" stroke="#ffffff" stroke-opacity="0.08"/>
  <rect x="120" y="140" width="88" height="88" rx="22" fill="#050505" stroke="url(#accent)" stroke-width="2"/>
  <path d="M148 172h28c14 0 23 7.5 23 19.5 0 10-6.3 16.8-16 18.8L199 248h-17l-15-25h-8v25h-11V172zm7 16v22h10c6.8 0 11-3.3 11-11s-4.2-11-11-11h-10z" fill="url(#accent)"/>
  <text x="240" y="188" fill="#ffffff" font-family="system-ui, -apple-system, sans-serif" font-size="28" font-weight="700" letter-spacing="0.2em">PHONE MYAT MIN</text>
  <text x="240" y="228" fill="#10b981" font-family="system-ui, -apple-system, sans-serif" font-size="22" font-weight="600">Full Stack Developer</text>
  <text x="120" y="310" fill="#a1a1aa" font-family="system-ui, -apple-system, sans-serif" font-size="26">React · TypeScript · Node.js · London, UK</text>
  <text x="120" y="370" fill="#71717a" font-family="system-ui, -apple-system, sans-serif" font-size="22">3D portfolio · SaaS · E-commerce · Real-time apps</text>
  <rect x="120" y="420" width="180" height="52" rx="26" fill="#10b981" fill-opacity="0.15" stroke="#10b981" stroke-opacity="0.5"/>
  <text x="210" y="453" fill="#34d399" font-family="system-ui, -apple-system, sans-serif" font-size="18" font-weight="700" text-anchor="middle">phonemyat.dev</text>
</svg>
